<svg xmlns="http://www.w3.org/2000/svg" viewBox="0 0 1000 650"><defs><linearGradient id="s" x2="0" y2="1"><stop stop-color="#e9eff1"/><stop offset="1" stop-color="#f7ead8"/></linearGradient><linearGradient id="g" x2="1"><stop stop-color="#22323d"/><stop offset="1" stop-color="#9db2b9"/></linearGradient></defs><rect width="1000" height="650" fill="url(#s)"/><circle cx="185" cy="102" r="55" fill="#fff5dc"/><path d="M0 390 150 300l165 60 170-155 160 120 180-105 175 130v300H0Z" fill="#aeb7b5" opacity=".26"/><g transform="translate(110 235)"><rect x="30" y="80" width="730" height="235" rx="7" fill="#e7e1d7"/><rect x="110" y="0" width="390" height="205" rx="7" fill="#f2eee8"/><rect x="535" y="55" width="180" height="165" fill="#ddd7ce"/><rect x="155" y="42" width="300" height="135" fill="url(#g)"/><rect x="570" y="90" width="110" height="110" fill="url(#g)"/><rect x="85" y="245" width="600" height="26" fill="#b48b4d"/><rect x="65" y="270" width="640" height="55" fill="#f7f3eb"/></g><ellipse cx="520" cy="575" rx="380" ry="48" fill="#9ab9bb"/><g fill="#314b3a"><circle cx="80" cy="525" r="55"/><circle cx="885" cy="515" r="72"/></g></svg>